<?xml version="1.0" standalone="no"?>
<!DOCTYPE svg PUBLIC "-//W3C//DTD SVG 20010904//EN"
        "http://www.w3.org/TR/2001/REC-SVG-20010904/DTD/svg10.dtd">
<svg version="1.0" xmlns="http://www.w3.org/2000/svg"
     width="512.000000pt" height="512.000000pt" viewBox="0 0 512.000000 512.000000"
     preserveAspectRatio="xMidYMid meet">
    <metadata>
        Created by potrace 1.14, written by Peter Selinger 2001-2017
    </metadata>
    <g transform="translate(0.000000,512.000000) scale(0.100000,-0.100000)"
       fill="#000000" stroke="none">
        <path d="M3193 3938 c-47 -15 -93 -28 -103 -28 -25 0 -55 -38 -83 -105 -28
-68 -127 -360 -152 -450 -33 -112 -65 -196 -110 -283 -24 -48 -84 -166 -131
-262 -48 -96 -119 -236 -159 -310 -39 -74 -83 -160 -97 -190 -15 -30 -47 -100
-73 -155 -26 -55 -58 -125 -72 -155 -13 -30 -31 -68 -38 -85 -7 -16 -39 -84
-70 -150 -103 -217 -122 -260 -135 -300 -7 -22 -16 -49 -21 -60 -22 -54 -30
-114 -24 -175 8 -84 14 -121 22 -133 8 -14 81 1 123 24 50 29 68 63 74 145 4
68 10 86 79 234 13 30 43 100 66 155 23 55 46 109 52 119 6 11 23 40 36 65 14
25 29 51 33 56 4 6 24 42 45 80 58 107 94 173 143 260 283 501 396 721 577
1120 61 135 192 562 181 590 -9 25 -76 22 -163 -7z"/>
        <path d="M1585 3437 c-125 -68 -296 -187 -620 -431 -138 -104 -329 -256 -345
-275 -13 -16 -121 -90 -165 -115 -46 -24 -165 -132 -238 -214 -16 -18 -36 -32
-46 -32 -10 0 -24 -7 -31 -15 -7 -8 -18 -15 -25 -15 -25 0 -39 -32 -39 -93 -1
-34 4 -72 10 -84 22 -45 116 -106 234 -152 47 -19 90 -37 95 -41 24 -19 126
-70 199 -100 44 -18 88 -42 99 -53 10 -10 78 -51 150 -89 73 -39 150 -80 172
-93 47 -27 325 -184 375 -213 19 -11 70 -40 114 -65 94 -54 108 -52 154 23 36
60 40 95 14 126 -24 29 -170 123 -287 184 -55 29 -152 89 -215 132 -158 110
-316 214 -433 287 -126 77 -286 193 -286 206 0 13 168 125 249 166 39 19 93
59 135 100 76 73 543 393 607 416 20 7 52 15 70 18 18 3 57 12 86 21 74 21 84
47 89 230 5 215 -8 233 -122 171z"/>
        <path d="M3461 3423 c-45 -45 -61 -100 -41 -139 12 -21 67 -62 132 -99 15 -9
264 -161 322 -198 473 -297 776 -502 776 -524 0 -5 -166 -123 -368 -264 -595
-414 -601 -418 -719 -440 -97 -18 -119 -32 -133 -86 -18 -69 -25 -269 -11
-320 10 -37 15 -43 39 -43 31 0 159 70 283 156 77 53 370 267 394 287 6 4 62
47 126 95 64 48 131 99 150 114 19 15 90 71 159 123 69 53 134 104 145 113 11
9 63 51 115 93 52 42 112 92 133 112 70 67 102 187 61 227 -17 17 -148 89
-414 228 -170 89 -427 230 -543 298 -60 35 -110 64 -112 64 -2 0 -64 36 -137
80 -84 50 -139 90 -149 107 -12 22 -25 29 -60 34 -24 4 -59 10 -76 14 -29 7
-37 3 -72 -32z"/>
    </g>
</svg>
